<svg id="BannerFlex" xmlns="http://www.w3.org/2000/svg" viewBox="0 0 300 300"><defs><style>.cls-1{fill:none;stroke:#4285f4;stroke-miterlimit:10;}.cls-2{fill:#4285f4;}.cls-3{fill:#8db900;}.cls-4{fill:#ea4335;}.cls-5{fill:#34a853;}.cls-6{fill:#fbbc05;}</style></defs><title>Монтажная область 1</title><circle id="Ellips" class="cls-1" cx="150" cy="150" r="120.56"/><path class="cls-2" d="M99.23,135.73a6.53,6.53,0,0,1-1,4.06q-1.86,3-6.63,3.33l-11.33.81-.05-.7a4.72,4.72,0,0,0,2.91-1.16,4.32,4.32,0,0,0,.56-3l-1.22-17.11c-.1-1.41-.44-2.3-1-2.68a6.21,6.21,0,0,0-3-.42l0-.7,9.44-.68q8.87-.63,9.33,5.82.32,4.35-4.67,6.11l.6.1Q98.86,130.4,99.23,135.73ZM95,123.7q-.39-5.57-8-5c-1,.07-1.52.12-1.61.15a.76.76,0,0,0-.84,1.05l.65,9.08,4-.32a13.47,13.47,0,0,0,3.44-.63A4,4,0,0,0,95,123.7Zm1.57,12.09c-.2-2.74-1.8-4.5-4.82-5.3a23.66,23.66,0,0,0-6.42-.1l.72,10.1a1.6,1.6,0,0,0,1.24,1.56,8.23,8.23,0,0,0,2.23.06Q96.94,141.57,96.52,135.79Z"/><path class="cls-3" d="M116.51,139.75a3.76,3.76,0,0,1-2.78,2.06c-1,.08-1.67-1-1.93-3.28q-3.51,3.67-5.4,3.81a3.07,3.07,0,0,1-2.42-.81,4.06,4.06,0,0,1-1.26-2.84,5.58,5.58,0,0,1,2-4.69,37,37,0,0,1,6.31-3.91l0-2.21q-.08-3.42-3.51-3.17a3.62,3.62,0,0,0-1.89.7,1.61,1.61,0,0,0-.92,1.44c0-.12.07.33.24,1.36a1.7,1.7,0,0,1-.16,1.17,1,1,0,0,1-.85.52c-.79.06-1.23-.44-1.3-1.49a3.53,3.53,0,0,1,1.08-2.69,5.7,5.7,0,0,1,4.06-1.84c2.15-.16,3.6.47,4.36,1.87a11.58,11.58,0,0,1,.74,3.93l.53,7.33c.13,1.85.7,2.73,1.7,2.66a2.46,2.46,0,0,0,1.36-.76Zm-4.9-3.42-.38-5.26q-6.54,3.1-6.33,6.05v.11c.14,2,1.09,3,2.86,3a4.38,4.38,0,0,0,2.63-1.18A3.08,3.08,0,0,0,111.61,136.33Z"/><path class="cls-2" d="M133,140.15l-6.77.49,0-.6a3,3,0,0,0,1.7-.83,4.44,4.44,0,0,0,.53-3l-.53-7.36c-.19-2.71-1.37-4-3.52-3.84q-1.68.12-3.74,2.88l.72,10.06c.1,1.43,1,2.16,2.77,2.2l0,.6-6.94.49,0-.59a2.87,2.87,0,0,0,1.84-.95,4.07,4.07,0,0,0,.38-2.53l-.63-8.83q-.21-2.91-1.89-2.79a4.23,4.23,0,0,0-.84.13l0-.6c1.44-.59,2.84-1.24,4.2-1.92l.25,3.61c1.33-1.53,2.19-2.48,2.58-2.86a4.76,4.76,0,0,1,2.73-1.29q3.51-.25,3.92,5.54l.62,8.59a2.61,2.61,0,0,0,2.66,2.77Z"/><path class="cls-2" d="M149.86,139l-6.76.48,0-.6a3.11,3.11,0,0,0,1.71-.82,4.49,4.49,0,0,0,.52-3l-.52-7.36q-.3-4.07-3.52-3.84-1.68.12-3.74,2.88l.72,10.06c.1,1.43,1,2.16,2.76,2.2l.05.6-6.95.5,0-.6a2.91,2.91,0,0,0,1.84-.94,4.1,4.1,0,0,0,.38-2.53l-.63-8.84c-.14-1.94-.77-2.87-1.9-2.79a5,5,0,0,0-.83.13l0-.6Q135,123,137.05,122l.26,3.61c1.33-1.52,2.19-2.48,2.58-2.86a4.76,4.76,0,0,1,2.73-1.29c2.34-.16,3.64,1.68,3.92,5.54l.61,8.59a2.62,2.62,0,0,0,2.67,2.77Z"/><path class="cls-2" d="M164.23,131.92a10.33,10.33,0,0,1-1.73,3.83,6.38,6.38,0,0,1-4.9,2.92,5.57,5.57,0,0,1-4.84-2,10.44,10.44,0,0,1-2.17-6.23q-.34-4.8,1.92-7.64a6.22,6.22,0,0,1,4.34-2.43,5.31,5.31,0,0,1,4,1.23,7.87,7.87,0,0,1,2.4,5l-11.25.81c.29,3.36,1.07,5.84,2.36,7.44a4.38,4.38,0,0,0,3.91,1.84c2.38-.17,4.23-1.81,5.53-4.91Zm-3.54-6.12c-.54-3-2-4.34-4.46-4.19q-3.22.19-4.2,4.81Z"/><path class="cls-2" d="M175.51,121.07c.06.82-.26,1.25-1,1.3a2.75,2.75,0,0,1-1.4-.32,2.09,2.09,0,0,0-1.22-.33c-.44.07-1,.67-1.67,1.77a5.11,5.11,0,0,0-.91,2.64l.57,7.47a3.3,3.3,0,0,0,1.14,2.63,4.07,4.07,0,0,0,2.32.43l.05.6-7.93.57,0-.6a4.4,4.4,0,0,0,2-.92,3.13,3.13,0,0,0,.54-2.33l-.65-9c-.13-1.8-.76-2.66-1.91-2.58a4,4,0,0,0-1,.18l0-.6q1.5-.66,4.49-2.33l.32,4.49.34-.62a30.09,30.09,0,0,1,2.1-3.18,2.9,2.9,0,0,1,2-1.13C174.8,119.15,175.42,119.76,175.51,121.07Z"/><path class="cls-4" d="M173.78,159.89l-.77.05c-.43-1.77-1-2.86-1.58-3.27s-1.89-.57-3.83-.43l-5.12.37a1.32,1.32,0,0,0-1.06.43,2.12,2.12,0,0,0-.17,1.21l.64,8.94,5.69-.41a3.74,3.74,0,0,0,2.68-.93,7.07,7.07,0,0,0,.52-3.07l.88-.06.62,8.73-.88.06a6.61,6.61,0,0,0-1.06-3.06,4.17,4.17,0,0,0-2.67-.37l-5.68.37.61,8.56a3.74,3.74,0,0,0,1.08,2.81,5.14,5.14,0,0,0,2.72.55l0,.7-9.22.66,0-.7a4.48,4.48,0,0,0,2.7-1.15c.43-.52.59-1.59.47-3.2L159.16,160c-.11-1.5-.48-2.48-1.13-3a5.28,5.28,0,0,0-2.6-.45l-.05-.7,17.92-1.28Z"/><path class="cls-5" d="M184.33,179.79l-8,.57,0-.63a4.11,4.11,0,0,0,2.29-1,3.38,3.38,0,0,0,.49-2.4l-1.27-17.78c-.13-1.82-.91-2.68-2.33-2.58a9.38,9.38,0,0,0-.95.14l0-.67a38.29,38.29,0,0,0,4.89-2.08l1.64,23a3.17,3.17,0,0,0,.84,2.3,4,4,0,0,0,2.4.54Z"/><path class="cls-6" d="M198.84,172.76a10.28,10.28,0,0,1-1.73,3.82,6.42,6.42,0,0,1-4.9,2.93,5.58,5.58,0,0,1-4.83-2,10.37,10.37,0,0,1-2.18-6.22c-.23-3.21.41-5.75,1.92-7.65a6.17,6.17,0,0,1,4.34-2.42,5.27,5.27,0,0,1,4,1.22,7.92,7.92,0,0,1,2.4,5l-11.25.81c.29,3.36,1.07,5.84,2.36,7.44a4.38,4.38,0,0,0,3.91,1.84c2.38-.17,4.23-1.81,5.53-4.91Zm-3.54-6.13c-.54-2.94-2-4.34-4.46-4.19q-3.22.19-4.2,4.81Z"/><path class="cls-5" d="M216.1,177.51l-6.52.47,0-.6c.93-.16,1.37-.53,1.33-1.11a3.81,3.81,0,0,0-.63-1.44l-3.22-5-2.67,5.51a4.05,4.05,0,0,0-.52,1.63c.06.46.46.72,1.22.76l0,.59-4.59.33,0-.6a2.2,2.2,0,0,0,1.09-.43,4.59,4.59,0,0,0,1-1.51l3.82-7.61-3.45-5.35a2.81,2.81,0,0,0-2.51-1.62l-.42,0a2.84,2.84,0,0,1-.42.06l0-.56,6.73-.48,0,.56c-1.18.2-1.71.62-1.6,1.24a21.34,21.34,0,0,0,2.41,4.13,20.78,20.78,0,0,0,1.92-4.72,1.58,1.58,0,0,0,0-.39c0-.23-.28-.37-.8-.4l0-.56,5.08-.37,0,.57a12.71,12.71,0,0,0-1.67.29,2.24,2.24,0,0,0-1.08,1.14l-2.77,5.59,5,7.68a3.28,3.28,0,0,0,1.84,1.56l1.41,0Z"/></svg>